:SAMPLES-PER-SECOND 30
:FULLY-SPECIFIED
:DEGREES
856
root  -47.6108 38.5084 1.33235 -7.83083 -67.6758 0.995819
RightUpLeg  -16.0558 1.78772 -10.3819
RightLeg  14.8472 17.2808 4.19954
RightFoot  -3.99493 -1.13368 17.6888
RightToes  -2.32831e-009 0 -3.6325e-017
Spine  17.4285 -0.359 9.77209
Spine1  1.12032 0.824419 0.631236
HEad  -58.3557 52.1179 -45.4285
LeftShoulder1  0.476303 1.73137 -20.4431
LeftArm  -3.27742 -4.19525 -19.0738
LeftForeArm  32.2582 -46.2403 -9.38275
LeftHand  -0.174661 7.75113 -5.96442
RightShoulder  -0.0929105 -3.9383 13.5308
RightArm  -36.5036 11.1121 9.88161
RightForeArm  131.837 71.143 146.234
RightHand  -0.112706 8.88975 -1.32
LeftUpLeg  -8.27704 1.85671 -10.0594
LeftLeg  29.9946 -0.201491 0.216523
LeftFoot  -14.2076 0.387704 12.0252
LeftToes  8.91272e-011 -1.70619e-011 7.36378e-012
857
root  -48.2154 38.0448 1.54103 -4.99073 -65.9186 -2.58014
RightUpLeg  -17.9826 3.05046 -9.30241
RightLeg  21.7133 14.6384 6.19818
RightFoot  -1.81765 -1.009 11.7817
RightToes  -2.32831e-009 0 -3.6325e-017
Spine  19.2456 -0.732655 11.6999
Spine1  0.392498 0.538679 2.43684
HEad  -58.7398 53.6261 -46.865
LeftShoulder1  0.589105 1.16279 -18.5677
LeftArm  -8.70678 -4.58093 -17.1667
LeftForeArm  34.8898 -50.8834 -11.0746
LeftHand  -0.0938721 6.79858 -4.3743
RightShoulder  -0.153463 -4.26318 12.5269
RightArm  -42.7405 5.07175 5.65023
RightForeArm  136.918 66.3439 153.934
RightHand  -0.27753 8.43694 -2.70125
LeftUpLeg  -10.6666 5.41323 -7.93562
LeftLeg  38.0245 -3.33816 -2.47349
LeftFoot  -15.7964 0.536309 11.3802
LeftToes  8.91272e-011 -1.70619e-011 7.36378e-012
858
root  -48.6988 37.3789 1.69654 -4.86489 -64.3447 -3.49609
RightUpLeg  -20.2395 2.19897 -9.29254
RightLeg  30.0042 13.5205 8.08373
RightFoot  -5.71199 -0.608196 11.4541
RightToes  -2.32831e-009 0 -3.6325e-017
Spine  22.4976 -1.24115 12.1536
Spine1  -1.50414 0.379114 3.13086
HEad  -60.4996 54.8412 -49.4605
LeftShoulder1  0.606916 0.93048 -16.846
LeftArm  -15.846 -3.54729 -16.1165
LeftForeArm  36.1496 -56.9754 -14.187
LeftHand  -0.0803427 7.05666 -2.52494
RightShoulder  -0.17781 -4.41834 11.8148
RightArm  -49.7985 -1.46799 3.0482
RightForeArm  139.289 61.7385 158.697
RightHand  -0.413193 8.8229 -3.75697
LeftUpLeg  -15.1295 9.70354 -6.37255
LeftLeg  49.4359 -5.5795 -6.5328
LeftFoot  -14.2061 0.269104 6.77468
LeftToes  8.91272e-011 -1.70619e-011 7.36378e-012
859
root  -49.1383 36.8098 1.86382 -3.7555 -62.1073 -4.87164
RightUpLeg  -21.9158 0.914824 -9.00917
RightLeg  36.0628 12.1562 9.11362
RightFoot  -8.67647 -0.286969 9.90855
RightToes  -2.32831e-009 0 -3.6325e-017
Spine  24.1633 -2.01684 12.1551
Spine1  -1.33681 -0.632885 5.44859
HEad  -64.3047 55.8365 -54.1413
LeftShoulder1  0.574204 1.01141 -16.2722
LeftArm  -24.5104 -1.4506 -16.2606
LeftForeArm  39.4462 -64.4728 -19.795
LeftHand  -0.0397961 6.84715 -0.297804
RightShoulder  -0.188635 -4.50626 11.1739
RightArm  -57.6167 -7.45323 3.59693
RightForeArm  140.522 57.0882 162.161
RightHand  -0.520228 9.85512 -4.3446
LeftUpLeg  -20.4172 13.6258 -4.51842
LeftLeg  59.6959 -6.07523 -10.4825
LeftFoot  -10.4855 0.0899641 -1.03501
LeftToes  8.91272e-011 -1.70619e-011 7.36378e-012
860
root  -49.4913 36.4334 2.10123 -3.03768 -60.0919 -5.10516
RightUpLeg  -23.1011 -0.673162 -9.33414
RightLeg  39.6922 11.2613 9.59847
RightFoot  -11.2997 -0.0803437 9.68848
RightToes  -2.32831e-009 0 -3.6325e-017
Spine  24.8327 -2.54657 12.4889
Spine1  -0.582936 -1.30694 6.6457
HEad  -66.7274 56.2582 -57.5238
LeftShoulder1  0.545299 1.17703 -16.7164
LeftArm  -32.3943 -0.967216 -18.0564
LeftForeArm  48.7355 -72.132 -30.596
LeftHand  -0.0278125 6.91719 0.735406
RightShoulder  -0.367974 -5.31762 12.8247
RightArm  -65.9866 -12.9643 5.43329
RightForeArm  137.943 52.1981 164.715
RightHand  -0.693876 11.072 -5.28953
LeftUpLeg  -25.4392 16.8504 -3.46068
LeftLeg  66.248 -5.3223 -12.374
LeftFoot  -8.27414 0.286254 -9.56056
LeftToes  8.91272e-011 -1.70619e-011 7.36378e-012
861
root  -49.763 36.3724 2.4167 -3.9343 -58.5883 -3.11002
RightUpLeg  -23.6316 -1.68765 -10.9402
RightLeg  41.0995 10.8437 9.70408
RightFoot  -12.4899 0.0109634 9.50968
RightToes  -2.32831e-009 0 -3.6325e-017
Spine  25.8082 -2.65736 11.2396
Spine1  -0.631505 -1.80557 7.60396
HEad  -68.7489 57.6312 -61.3233
LeftShoulder1  0.535791 1.30497 -17.6878
LeftArm  -36.3848 0.158388 -20.8126
LeftForeArm  73.8323 -78.9257 -57.6612
LeftHand  -0.019859 6.09663 1.8252
RightShoulder  -0.609988 -6.26477 15.0459
RightArm  -73.0326 -17.4414 9.09079
RightForeArm  135.571 47.4261 166.741
RightHand  -0.65734 12.8847 -4.6347
LeftUpLeg  -29.9253 19.3222 -3.86456
LeftLeg  69.2033 -5.0191 -13.6184
LeftFoot  -8.52543 0.261984 -8.64123
LeftToes  8.91272e-011 -1.70619e-011 7.36378e-012
862
root  -49.9818 36.4697 2.82526 -4.30603 -57.0885 -1.01947
RightUpLeg  -23.9925 -2.30828 -12.758
RightLeg  41.0371 10.2573 9.16186
RightFoot  -13.1909 0.0712822 9.94479
RightToes  -2.32831e-009 0 -3.6325e-017
Spine  26.7299 -2.76945 9.774
Spine1  -1.54327 -2.3682 8.76666
HEad  -70.8242 58.42 -64.6763
LeftShoulder1  0.584416 1.15146 -18.226
LeftArm  -35.0436 1.98535 -23.4439
LeftForeArm  124.329 -79.9207 -110.268
LeftHand  -0.0081393 6.23733 3.04632
RightShoulder  -0.75417 -6.69033 16.6475
RightArm  -77.4345 -22.327 13.3314
RightForeArm  131.357 43.3657 168.08
RightHand  -0.408075 14.8095 -2.7542
LeftUpLeg  -33.6069 21.2498 -3.84792
LeftLeg  68.7515 -5.44886 -14.4492
LeftFoot  -9.36977 0.223021 -9.64637
LeftToes  8.91272e-011 -1.70619e-011 7.36378e-012
863
root  -50.1133 36.6395 3.28405 -4.01351 -55.5156 0.30835
RightUpLeg  -23.811 -3.15538 -14.2933
RightLeg  39.9709 9.8985 8.51409
RightFoot  -13.53 0.111841 10.6566
RightToes  -2.32831e-009 0 -3.6325e-017
Spine  27.1961 -2.97498 8.72606
Spine1  -1.47561 -2.98206 9.56988
HEad  -72.7626 57.4406 -66.8177
LeftShoulder1  0.555888 1.25612 -18.0718
LeftArm  -29.2865 1.93702 -25.1348
LeftForeArm  156.863 -74.8563 -142.598
LeftHand  -0.0101723 6.29368 2.59044
RightShoulder  -0.94694 -7.21012 18.7408
RightArm  -78.7472 -26.2373 16.3638
RightForeArm  127.342 40.4314 168.898
RightHand  -0.702938 15.6341 -4.33055
LeftUpLeg  -36.4968 21.5566 -2.99245
LeftLeg  65.827 -5.96385 -13.6374
LeftFoot  -9.26748 0.219075 -9.00389
LeftToes  8.91272e-011 -1.70619e-011 7.36378e-012
864
root  -50.1745 36.8139 3.78387 -3.7882 -53.9377 1.71716
RightUpLeg  -23.4762 -4.21522 -16.0033
RightLeg  38.6472 9.69168 7.95763
RightFoot  -13.5137 0.120936 11.2178
RightToes  -2.32831e-009 0 -3.6325e-017
Spine  27.4805 -2.73236 7.33111
Spine1  -1.5021 -3.32049 11.0843
HEad  -73.4553 56.1346 -67.5554
LeftShoulder1  0.673594 0.837557 -18.6811
LeftArm  -19.0244 -0.364609 -24.4635
LeftForeArm  169.056 -70.4092 -152.788
LeftHand  -0.0291357 5.00271 1.37087
RightShoulder  -1.02655 -7.47009 19.0744
RightArm  -78.1718 -30.63 18.235
RightForeArm  127.882 38.7617 169.461
RightHand  -0.592284 15.6327 -3.72189
LeftUpLeg  -38.3001 21.2523 -1.64772
LeftLeg  60.6615 -6.40486 -11.6367
LeftFoot  -9.07164 0.20097 -7.46009
LeftToes  8.91272e-011 -1.70619e-011 7.36378e-012
865
root  -50.2289 36.9827 4.3163 -3.6211 -52.4579 2.75262
RightUpLeg  -22.5499 -4.98511 -17.547
RightLeg  37.0521 9.37844 7.27181
RightFoot  -13.5376 0.141083 12.0805
RightToes  -2.32831e-009 0 -3.6325e-017
Spine  28.3468 -2.55521 5.25826
Spine1  -1.99746 -3.80928 12.8019
HEad  -75.0407 55.8106 -68.2254
LeftShoulder1  0.706801 0.569731 -17.4518
LeftArm  -6.27252 -3.04856 -22.8963
LeftForeArm  172.761 -68.1573 -156.091
LeftHand  -0.023162 3.87743 0.0341878
RightShoulder  -1.05974 -7.50077 19.7438
RightArm  -75.2087 -33.1367 17.3174
RightForeArm  130.026 38.6469 169.588
RightHand  -0.685062 14.726 -4.37296
LeftUpLeg  -38.8247 21.3055 0.223871
LeftLeg  53.7971 -6.16861 -8.5213
LeftFoot  -8.08926 0.206867 -5.56628
LeftToes  8.91272e-011 -1.70619e-011 7.36378e-012
866
root  -50.2895 36.9959 4.92768 -2.98577 -50.8456 3.14331
RightUpLeg  -21.7917 -5.6051 -18.8746
RightLeg  36.3197 8.77086 6.61563
RightFoot  -14.2108 0.237954 13.3338
RightToes  -2.32831e-009 0 -3.6325e-017
Spine  28.4457 -2.43584 3.67852
Spine1  -2.17985 -4.27533 14.2551
HEad  -76.0414 55.4404 -68.3251
LeftShoulder1  0.864655 -0.338138 -15.7186
LeftArm  7.12069 -6.32202 -20.3716
LeftForeArm  170.944 -68.5223 -155.392
LeftHand  -0.00319025 3.85648 -1.42265
RightShoulder  -1.05156 -7.51803 19.4014
RightArm  -71.328 -33.7117 14.7306
RightForeArm  130.638 39.9769 169.197
RightHand  -0.444016 13.36 -3.19116
LeftUpLeg  -38.8988 21.5611 2.2178
LeftLeg  46.3736 -4.97258 -5.15513
LeftFoot  -6.31739 0.255655 -4.95464
LeftToes  8.91272e-011 -1.70619e-011 7.36378e-012
867
root  -50.3527 36.9224 5.60244 -1.80707 -49.1309 2.94388
RightUpLeg  -21.173 -6.12026 -19.8438
RightLeg  36.051 7.9937 5.95798
RightFoot  -14.8688 0.333043 14.0376
RightToes  -2.32831e-009 0 -3.6325e-017
Spine  27.9903 -2.40124 2.18897
Spine1  -2.23178 -4.80098 15.6523
HEad  -77.0791 54.8553 -68.3923
LeftShoulder1  0.999824 -1.26198 -14.0364
LeftArm  18.4696 -8.11679 -16.9116
LeftForeArm  166.434 -70.368 -152.395
LeftHand  0.0453696 3.27488 -3.55464
RightShoulder  -0.979456 -7.46295 17.8591
RightArm  -70.3767 -35.0847 12.5484
RightForeArm  132.103 40.051 169.241
RightHand  -0.427179 12.8903 -3.14899
LeftUpLeg  -39.0254 22.8405 3.77483
LeftLeg  39.101 -2.68679 -1.97472
LeftFoot  -4.11975 0.314337 -4.57985
LeftToes  8.91272e-011 -1.70619e-011 7.36378e-012
868
root  -50.4193 36.7431 6.36293 -0.8629 -47.2354 2.29092
RightUpLeg  -19.9809 -6.23381 -20.6453
RightLeg  36.3231 6.88157 5.15263
RightFoot  -15.9595 0.504489 15.1254
RightToes  -2.32831e-009 0 -3.6325e-017
Spine  27.769 -2.53639 0.596452
Spine1  -2.27011 -5.49929 17.0175
HEad  -78.5542 54.6035 -68.3534
LeftShoulder1  1.00091 -1.61853 -12.4452
LeftArm  25.2793 -6.5983 -12.7363
LeftForeArm  160.963 -72.9754 -147.176
LeftHand  0.096948 2.85094 -5.39141
RightShoulder  -0.938387 -7.4909 16.5616
RightArm  -71.8663 -35.6324 10.6068
RightForeArm  131.738 39.7746 169.314
RightHand  -0.370654 13.6114 -2.70232
LeftUpLeg  -39.0978 25.254 4.60291
LeftLeg  33.5501 1.39804 1.35825
LeftFoot  -2.39827 0.306085 -3.75083
LeftToes  8.91272e-011 -1.70619e-011 7.36378e-012
